<svg width="150" height="150" viewBox="0 0 150 150" fill="none" xmlns="http://www.w3.org/2000/svg">
<path d="M87.5 75H93.75V81.25H87.5V75Z" fill="white"/>
<path d="M93.75 68.75H100V75H93.75V68.75Z" fill="white"/>
<path d="M93.75 37.5H100V43.75H93.75V37.5Z" fill="white"/>
<path d="M87.5 31.25H93.75V37.5H87.5V31.25Z" fill="white"/>
<path d="M75 68.75H68.75V75H75V68.75Z" fill="white"/>
<path d="M75 68.75H68.75V75H75V68.75Z" fill="white"/>
<path d="M81.25 62.5H75V68.75H81.25V62.5Z" fill="white"/>
<path d="M87.5 81.25H81.25V87.5H87.5V81.25Z" fill="white"/>
<path d="M68.75 50H62.5V56.25H68.75V50Z" fill="white"/>
<path d="M56.25 37.5H50V43.75H56.25V37.5Z" fill="white"/>
<path d="M62.5 31.25H56.25V37.5H62.5V31.25Z" fill="white"/>
<path d="M100 68.75H106.25V43.75H100V68.75Z" fill="white"/>
<path d="M87.5 31.25V25H62.5V31.25H87.5Z" fill="white"/>
<path d="M50 43.75H43.75V56.25H50V43.75Z" fill="white"/>
<path d="M62.5 62.5V56.25H50V62.5H62.5Z" fill="white"/>
<path d="M68.75 43.75V50H81.25V43.75H68.75Z" fill="white"/>
<path d="M81.25 62.5H87.5V50H81.25V62.5Z" fill="white"/>
<path d="M62.5 87.5H68.75V75H62.5V87.5Z" fill="white"/>
<path d="M68.75 87.5V93.75H81.25V87.5H68.75Z" fill="white"/>
<path d="M68.75 100V106.25H81.25V100H68.75Z" fill="white"/>
<path d="M62.5 118.75H68.75V106.25H62.5V118.75Z" fill="white"/>
<path d="M81.25 125V118.75H68.75V125H81.25Z" fill="white"/>
<path d="M87.5 106.25H81.25V118.75H87.5V106.25Z" fill="white"/>
</svg>
